<!--
  웅아범(@Woong_Fa)이 그린 원본을 64비트여우(@fox86_64)가 벡터로 수정하여 제작하였습니다.
-->
<svg xmlns:dc="http://purl.org/dc/elements/1.1/" xmlns:cc="http://creativecommons.org/ns#" xmlns:rdf="http://www.w3.org/1999/02/22-rdf-syntax-ns#" xmlns:svg="http://www.w3.org/2000/svg" xmlns="http://www.w3.org/2000/svg" xmlns:xlink="http://www.w3.org/1999/xlink" xmlns:sodipodi="http://sodipodi.sourceforge.net/DTD/sodipodi-0.dtd" xmlns:inkscape="http://www.inkscape.org/namespaces/inkscape" width="210mm" height="297mm" viewBox="0 0 744.09448819 1052.3622047" id="svg2" version="1.1" inkscape:version="0.91pre4 r13712"><style>.style0{stop-color:	#000000;stop-opacity:	1;}.style1{stop-color:	#000000;stop-opacity:	0;}.style2{display:	inline;}.style3{fill:	#000000;fill-rule:	evenodd;stroke-width:	1px;stroke-linejoin:	round;}.style4{fill:	#000000;fill-rule:	evenodd;stroke-width:	1px;}.style5{fill:	none;fill-rule:	evenodd;stroke:	#000000;stroke-width:	10.96893692;stroke-linecap:	round;stroke-linejoin:	round;}.style6{fill:	none;fill-rule:	evenodd;stroke:	#000000;stroke-width:	10.96893692;stroke-linecap:	round;}.style7{fill:	none;fill-rule:	evenodd;stroke:	#000000;stroke-width:	2.19378757px;}.style8{fill:	url(#linearGradient4335);fill-rule:	evenodd;stroke-width:	1px;}.style9{fill:	url(#linearGradient4343);fill-rule:	evenodd;stroke-width:	1px;}</style><defs id="defs4"><linearGradient inkscape:collect="always" id="linearGradient4337"><stop offset="0" id="stop4339" class="style0"/><stop offset="1" id="stop4341" class="style1"/></linearGradient><linearGradient inkscape:collect="always" id="linearGradient4329"><stop offset="0" id="stop4331" class="style0"/><stop offset="1" id="stop4333" class="style1"/></linearGradient><linearGradient inkscape:collect="always" xlink:href="#linearGradient4329" id="linearGradient4335" x1="314.1" y1="513.7" x2="346.4" y2="529.1" gradientUnits="userSpaceOnUse" gradientTransform="matrix(2.1937875,0,0,2.1937875,-386.79208,-819.65528)"/><linearGradient inkscape:collect="always" xlink:href="#linearGradient4337" id="linearGradient4343" x1="425.6" y1="522.6" x2="440.1" y2="546" gradientUnits="userSpaceOnUse" gradientTransform="matrix(2.1937875,0,0,2.1937875,-386.79208,-819.65528)"/></defs><metadata id="metadata7"><rdf:RDF><cc:Work rdf:about=""><dc:format>image/svg+xml</dc:format><dc:type rdf:resource="http://purl.org/dc/dcmitype/StillImage"/><dc:title/></cc:Work></rdf:RDF></metadata><g inkscape:label="Layer 1" inkscape:groupmode="layer" id="layer1" class="style2"/><g inkscape:groupmode="layer" id="layer2" inkscape:label="Layer 2" class="style2"><path d="m 522.9 139.5 c -7.5 0.1 -11.7 5.9 -20.3 9.2 -8.9 3.4 -44.2 33.9 -60 47.7 4.9 -30.5 8.4 -55.6 8.4 -55.6 l -14 3.2 -0.1 0.6 c -15.8 -0.2 -54.5 2.8 -104.2 31.7 -65.5 38.1 -73.9 83.8 -88.3 144.7 -14.5 60.9 -5.3 92.9 -6.9 97.5 l -16.3 48.9 c -3.1 -0.1 -12.3 -0.4 -14.9 -2.5 -3.1 -2.5 -18.2 -0.6 -10 6.3 0.2 0.1 0.5 0.6 0.5 0.6 l 11 28.5 -8.1 2 c 0 0 -13.5 2.5 -7.2 13.2 4.4 7.4 5 10.3 5.3 11.9 -4.9 0.1 -10 1.9 -6.7 9.6 3.4 7.8 9.1 16.2 15.6 24.1 -1.7 8.4 -4 23.2 -3.2 39.1 -3.9 25.9 -10.2 71.2 -10.2 96.3 0 26.5 3.3 49.2 5.1 59.5 -9 -1.8 -17.5 -4 -23.7 -6.3 -23 -8.9 -78.8 -30.1 -78.8 -30.1 0 0 -12.4 -7.1 -15.1 2.7 -2.7 9.7 12.9 34.4 23 43.4 0.5 0.4 1 0.8 1.5 1.3 2 8 6.1 21.7 12.7 31.5 11.1 16.4 32.3 38.1 56.2 38.1 18.4 0 44.9 -17.7 55.3 -25 -1.2 3.6 -2.3 7.5 -3.2 11.4 -5.8 24.2 -7 30 -6.9 58.9 0.1 26.7 9.7 37.4 13.8 42 4.8 5.3 9.4 10 9.4 10 l 2.5 -1.4 3.3 -2.6 c 2.8 -2.8 6.3 -8.3 9.9 -19.2 8.1 -24.4 13.2 -46.4 15 -69.5 1.9 -23.2 2.5 -29.1 0.6 -39.5 -0.1 -0.4 -0.1 -0.7 -0.2 -1.1 6.8 0.8 19.4 1.5 34 -1.4 21.9 -4.4 62.6 -21.9 74.5 -25.7 11.9 -3.8 30.1 -14.4 30.1 -14.4 0 0 15.7 -10.6 25.7 -27.6 10 -16.9 7.5 -40.1 5.6 -56.4 -1.2 -10.8 -1.8 -16.9 -2.1 -20.7 9.7 -0.9 19.9 -2 29.9 -3.8 33.7 -6.2 92.1 -36.3 107.2 -49.6 15.1 -13.3 15.1 -18.6 20.4 -31.9 5.3 -13.3 9.7 -30.1 -1.8 -42.5 -10.2 -11 -32.8 -9.5 -37.9 -9 -5.2 -0.2 -11.4 -0.5 -17.8 -0.6 3.4 -9.7 9.8 -32 7.8 -57.7 -1.4 -18 -2.5 -32.8 -4.3 -43.1 3.9 -2.1 9.6 -5.2 17.6 -10.3 18.8 -11.9 41.3 -31.3 54.5 -44.5 13.2 -13.2 27.6 -47 38.2 -69.5 10.6 -22.5 24.4 -58.3 24.4 -58.3 l -6.4 0.7 0.2 -0.7 c 0 0 -57 1.9 -79.5 3.1 -15.2 0.8 -32.5 5.6 -42.3 8.7 -0.8 -16.7 -3.5 -66.9 -4.9 -75.8 -1.8 -10.6 -0.9 -21.3 -15.1 -27.5 -3.5 -1.6 -6.4 -2.2 -8.9 -2.1 z m 3.7 12.1 c 0.6 0 1.2 0.1 1.7 0.3 8 2.7 3.5 -0.4 6.2 12 2.7 12.4 2.7 70.9 2.7 70.9 l 0.3 6.5 c 0.5 14.8 2.1 41.4 1.4 60.9 -0.9 27.5 1 7.2 -1.8 32.8 -1.9 17 -4.7 25.1 -6.2 28.3 l -0.7 0.3 c 0 0 -30.7 8.8 -62 -4.4 -25.9 -10.9 -46.4 -31.4 -52.8 -38.2 3.5 -9.7 6.9 -20.3 9.8 -31.4 4.4 -17 9.4 -44.7 13.9 -71.6 4.7 -4 14.3 -12.1 34.8 -29.3 23.3 -19.5 43.8 -37.1 52.8 -37 z m -90.9 5 c -0.3 2.2 -3.3 25.4 -8.4 74.7 -5.4 51.7 -32.3 136.8 -32.3 136.8 0 0 7.9 -14.9 16.4 -36.6 3.6 6.1 16 22.7 49.3 33.8 35.5 11.8 69 7 77.8 5.5 2.6 1.6 6.2 3.6 10.1 5.4 -3.2 1.9 -6.9 3.9 -9 4.2 -4.4 0.6 -11.9 1.9 -8.1 7.5 3.3 4.9 3.2 14.2 3.1 16.6 -1.6 2.8 -2.9 6.8 -1 11.9 3.5 9.7 7.1 19.5 6.2 48.7 -0.7 21.6 -5.6 42.1 -8.2 51.4 -4.1 0 -7.9 0.1 -10.8 0.4 -15.1 1.3 -28.3 2.7 -28.3 2.7 0 0 -7.5 0 -8 2.2 -0.4 2.2 -2.2 2.2 5.8 3.1 7.3 0.8 38.3 -2.1 59.6 2.7 l 0.6 0.4 33.7 35.4 8 -5.3 c 0 0 5.3 20.4 -21.3 38.1 -26.6 17.7 -73.5 40.7 -115.2 48.7 -41.6 8 -42.5 5.3 -57.6 6.2 -12.5 0.7 -22.7 4.4 -26 5.6 l -0.9 -0.1 c 0 0 -0.2 0.4 -0.3 0.6 -0 0 -0.2 0.1 -0.2 0.1 0 0 0.1 0.1 0.1 0.1 -2.2 3.9 -20.5 36 -44 51.8 -22 14.9 -50.4 31.8 -57.3 35.9 -6.4 -21.3 -25.5 -83.6 -34.3 -106.4 -7.4 -19.2 -12.6 -48 -15.1 -63.8 0.5 0.4 0.9 0.9 1.4 1.3 12 11.1 67.8 44.3 67.8 44.3 0 0 -46.9 -36.8 -56.7 -48.3 -9.7 -11.5 -18.6 -20.4 -19.5 -23.5 -0.9 -3.1 -8.4 -9.7 1.8 -7.1 7 1.8 2.2 -7.8 -1.6 -14.2 -1 -2.3 -2.4 -4.7 -4.2 -7.1 -6.3 -8.1 -5.6 -8.5 -5.6 -8.5 0 0 10.8 -2.9 14.1 -6.3 0.6 -0.6 1.7 0.1 0.9 -0.9 0.6 -1.8 0.1 -6.6 0.3 -8.5 0.2 -1.7 -4 -12.6 -6.9 -19.8 6.1 0.9 11.6 2 13.9 2 l 0.4 -0.1 23.7 -64.5 c 0 0 -13.7 -105.1 53.3 -185.8 54.9 -66.1 113.3 -71.7 132.6 -71.5 z m 231.4 82.4 c -3 8.6 -10.7 28.9 -26 58.7 -20.7 40.1 -10 23.8 -33.2 55.1 -17.3 23.4 -47.1 44 -61.2 53.1 1.1 -2.2 2.6 -6.8 -0.1 -11.7 -3.8 -6.9 -3.8 -7.5 -3.8 -7.5 0 0 8.6 -4.1 14.5 -7.3 11 2.7 22.4 -2.7 21.2 -5.8 -1.3 -3.1 -8.1 1.3 -19.4 -2.5 -7.1 -2.4 -13.4 -5.8 -17.3 -8.2 2.3 -14.5 9.6 -62.6 10.1 -99.4 5.7 -1.5 12.8 -3.3 26.6 -7.1 28.3 -7.6 76.1 -15.3 88.7 -17.3 z m -124.1 167.8 1.7 0.3 c -0.4 0.2 -0.9 0.6 -1.3 0.8 -0.1 -0.4 -0.3 -0.7 -0.4 -1.1 z m -225.6 85.4 c -3.3 -0.1 -5.6 0.8 -6.5 2.4 -2.2 4.4 15.3 11.9 26.9 16.6 11.6 4.7 26 16.3 27.6 15 1.6 -1.3 -5 -7.5 -13.2 -14.4 -8.1 -6.9 -13.8 -10.6 -13.8 -10.6 -7.6 -6.1 -15.6 -8.8 -21.1 -9 z m -5.1 23.6 c -4.8 0.1 -6.6 1.8 -7 5.2 -0.4 3.8 9.7 3.4 20.4 4.1 10.6 0.6 27.6 8.5 28.8 7.2 1.3 -1.3 -3.1 -3.8 -12.2 -8.8 -9.1 -5 -12.2 -4.7 -12.2 -4.7 -8.4 -2.1 -14 -3 -17.8 -3 z m -99 92 c 0.7 3.4 1.4 6.8 2.3 10.4 8.9 37.2 9.7 37.2 21.3 65.6 10.8 26.5 21.4 55.9 23.5 63.2 l -6.2 3.2 c 0 0 -8.4 1.8 -5.3 9.3 0.6 1.5 0.9 2.7 1 3.8 -1.2 -0.1 -2.6 -0.3 -6.8 -0.7 -5.3 -12.8 -17.8 -44.9 -21.3 -72.1 -4.4 -34.5 -8.9 -37.6 -8.9 -67.8 0 -5.3 0.2 -10.2 0.4 -14.8 z m 79.8 18.4 c 0 0 -5.8 8.4 -12.4 11.1 -6.6 2.7 -15.9 4 -16.8 8 -0.9 4 6.2 4.4 12.4 4.4 6.2 0 6.6 -0.4 7.5 0.4 0.9 0.9 -5.5 11.7 -7.1 18.8 -1.6 7.1 -1.3 28.3 -0.2 28.6 1.1 0.2 0.2 -14.4 3.3 -23.3 3.1 -8.9 12.2 -21.3 9.3 -25.9 -2.9 -4.7 -11.1 -1.5 -10.9 -2.7 0.2 -1.1 2.9 -1.5 8.9 -6.9 6 -5.3 10 -12.4 6 -12.6 z m -85.6 23.3 c 1.5 16.8 4 34.7 9 52.8 7 25.6 17.2 48.7 22.4 59.6 -8.3 -1 -19.4 -2.5 -30.8 -4.5 -2.7 -9.4 -8.6 -34 -5.8 -60.4 1.7 -16.5 3.7 -33.9 5.2 -47.5 z m 224.9 5.2 c 0.9 5.6 1.4 20.1 -11.2 40 -16.3 25.7 -15.7 26.3 -15.7 26.3 0 0 -5 4.4 -2.5 6.3 2.5 1.9 5 2.5 11.9 -8.1 5.6 -8.6 17.2 -29.3 22.4 -41 1 15.2 1.4 32.3 -1.1 38.5 -5 11.9 -28.8 40.8 -57.2 49.3 -34.1 10.3 -48.6 17.7 -66.2 22.1 -19.1 4.8 -40.1 6.9 -40.1 6.9 l -0 0 c -0.2 -1 -0.4 -1.6 -0.6 -2.4 l 0.6 -0.4 c 0 0 4 -0.4 13.7 -4 9.1 -3.3 12.7 -5.5 16.1 -8.2 2.7 0.4 8.6 -1.2 21.7 -5.3 18.2 -5.6 52 -14.4 51.4 -33.5 -0.5 -16.7 -2.1 -18.1 -3.9 -18.2 -0.3 -0 -0.5 0 -0.8 0 0 0 -3.4 0.9 -1.6 7.8 0.2 0.7 0.4 1.5 0.5 2.4 l -60.2 37.9 -5.5 3.7 c -0.5 -0.8 -1.3 -1.4 -2.8 -1.2 -3.3 0.4 -5.8 5.8 -18.6 10.2 -5.6 1.9 -9.7 3.3 -13 4.4 l -3.1 0.7 c 0 0 -5.3 -13.5 -6.6 -16.3 -0 -0.1 -0.1 -0.1 -0.1 -0.1 1.5 -0.6 3.4 -1.6 5.3 -3.4 5.1 -4.7 9.8 -11.8 8.2 -16.3 8.9 -3.2 27.9 -11 47.6 -25.7 26.9 -20 38.2 -26.9 48.9 -41.3 6.3 -8.6 10.2 -16.9 12.3 -22.2 3 0.5 6.3 0.1 9.7 -2.1 6.4 -4.3 21.9 -5.3 40.6 -6.9 z M 91.8 727.6 c 3.1 -0.2 10.7 6.1 31.2 13.8 23.5 8.9 27.5 11.1 66 19.9 20.5 4.7 36.4 7.3 47 8.8 -8 1.9 -18 4.5 -24.6 7 -12.2 4.7 -25.4 5.3 -24.1 9.1 0.3 0.8 1.4 1.1 3.1 1 0.5 1 1.6 2.4 4.4 3.7 5.3 2.5 11.6 5.6 22.9 4.4 7.7 -0.9 17.6 -7 23.2 -10.9 -1.8 3.4 -3.6 7.1 -5.4 11.4 -13.6 11.2 -44.8 34.9 -63.2 32.8 -17.7 -2 -25.7 -11.1 -35.4 -21.3 -11.1 -11.6 -17.5 -26.1 -20 -32.6 11.6 7.6 23.5 13.5 23.5 13.5 0 0 8.5 3.6 10.7 0.5 2.2 -3.1 -19.2 -7.8 -39.7 -28.2 -21 -21 -21.9 -31.1 -20.6 -32.5 0.3 -0.3 0.6 -0.5 1.1 -0.5 z M 370.1 739.1 c -0.3 5.9 -2.4 12.2 -8 15.3 -7.1 3.9 -20.1 8.9 -30.5 12.2 l 38.5 -27.6 z m -105.8 16.5 c 1.4 2 2.6 3.5 2.6 3.5 l 1.1 0.6 -0.1 -0 c 0 0 -0.5 4.3 -4.5 7 -2.2 1.5 -4.4 1.1 -5.9 0.7 l -0.3 -4.2 c 0 0 -1.3 -5.3 1.3 -5.8 1.3 -0.2 3.7 -1 5.8 -1.7 z m -8.9 16.1 0 0.7 c -2.1 5.7 -8.9 25.3 -10.8 45.1 -2 20 -2.1 23.9 -1.3 35.1 0.7 10.1 0.3 10.3 2.5 10.3 1.2 0 1.2 -5.6 1.1 -13 1.9 -1.2 10 -6.5 13.7 -12 4.1 -6.3 3.4 -15.7 3.4 -21.6 0 -3.5 -0.2 -11.6 -0.4 -18.7 2.6 11.3 4.7 25 3.5 37.5 -2.5 26.9 -8.1 48.2 -13.2 66.4 -3.4 12.5 -7.1 20.1 -9.1 23.8 l -0.3 0 c 0 0 -20.1 -15.1 -13.8 -67 5.7 -47.2 6.3 -48.8 14.4 -67.6 4.6 -10.8 8.1 -16.2 10.2 -18.8 z m -10 2.8 c -5.1 4.1 -16.7 13 -23.4 14.8 -13.5 3.7 -20.7 -0.8 -23.7 -3.5 6.4 -1.6 14.2 -4.1 19.9 -5.2 8.6 -1.7 21.1 -4.6 27.2 -6 z m 12.3 2.2 c 0.2 0.6 0.5 1.6 0.8 2.4 -0.2 7.2 -0.6 24.7 0.1 38.3 0.9 17.5 -6.3 21.3 -6.3 21.3 l -5.6 5.6 c -0 -4.5 -0 -9.3 0.3 -13.9 0.9 -13.3 3.4 -29.8 5.9 -38.6 1.7 -6.1 3.5 -11.6 4.7 -15.1 z" id="path4163" inkscape:connector-curvature="0" class="style3"/><path d="m 399.3 490.3 c 0 0 7.8 -33.8 23.8 -29.1 16 4.7 5 37 5 37 0 0 -9.4 30.7 -21 25.7 -11.6 -5 -7.8 -33.5 -7.8 -33.5 z" id="path4190" inkscape:connector-curvature="0" class="style4"/><path d="m 424.7 619 c 0 0 7.5 1.6 18.2 -2.5 10.6 -4.1 14.7 -11.6 13.8 -14.4 -0.9 -2.8 -4.4 -3.1 -11.6 0 -7.2 3.1 -8.8 4.4 -15.7 2.8 -6.9 -1.6 -11.6 -5.3 -14.4 -8.5 -2.8 -3.1 -3.1 -9.4 -6.6 -9.4 -3.4 0 -6.3 5 -2.8 12.5 3.4 7.5 8.1 16.9 19.1 19.4 z" id="path4192" inkscape:connector-curvature="0" class="style4"/><path d="m 505.2 522.6 c 0.9 -3.5 -3.5 -3.5 -0.9 -16.8 2.7 -13.3 8.9 -26.6 17.7 -24.8 8.9 1.8 5.1 29.9 3.5 40.7 -0.4 3.1 -20.4 0.9 -20.4 0.9 z" id="path4196" inkscape:connector-curvature="0" class="style4"/></g><g inkscape:groupmode="layer" id="layer3" inkscape:label="Layer 3"><path d="m 381.1 489.3 -0.8 40.2 57.2 6.1 5 -37.6 z" id="path4304" inkscape:connector-curvature="0" class="style5"/><path d="m 441.9 504.4 c 0 0 6.3 -8.8 24.4 -5 18.2 3.8 19.4 10.6 19.4 10.6" id="path4308" inkscape:connector-curvature="0" class="style5"/><path d="m 486.4 519.4 -0.6 -13.2 51.4 7.5" id="path4311" inkscape:connector-curvature="0" class="style6"/><path d="m 416.7 402.5 c -3.8 12.5 7 26.7 14.5 29.2 7.5 2.5 19.7 -1.7 21.3 -11.3 2.3 -25.9 -31.1 -30.4 -35.8 -17.9 z" id="path4313" inkscape:connector-curvature="0" class="style7"/><path d="m 509.7 429.1 c -2.2 8.4 2.2 14.1 6.6 15.1 2.1 0.5 10.3 1.2 13.3 -8 3.4 -16.5 -17.4 -15 -19.9 -7.1 z" id="path4315" inkscape:connector-curvature="0" class="style7"/><path d="m 388.7 213.7 c 0 0 -16.9 35.7 -36.3 62 -17.5 23.7 -22.5 27.6 -30.1 48.2 -8.3 22.9 -8.1 33.2 -8.1 33.2 l 39.5 8.1 c 0 0 10.6 -18.8 16.3 -61.4 5.6 -42.6 7 -38.9 10.6 -58.9 1.6 -8.8 8.1 -31.3 8.1 -31.3 z" id="path4317" inkscape:connector-curvature="0" class="style8"/><path d="m 538.4 365.3 c 0 0 5 -15 30.7 -28.2 25.7 -13.2 48.2 -20 48.2 -20 0 0 -12.5 24.4 -31.3 40.7 -18.8 16.3 -22.5 20 -22.5 20 z" id="path4319" inkscape:connector-curvature="0" class="style9"/></g></svg>
